<?xml version="1.0" encoding="UTF-8" standalone="no"?>
<!-- Created with Inkscape (http://www.inkscape.org/) -->

<svg
   id="svg2"
   version="1.1"
   inkscape:version="1.1.2 (0a00cf5339, 2022-02-04)"
   width="1280"
   height="720"
   xml:space="preserve"
   sodipodi:docname="no-camera.svg"
   inkscape:export-filename="/home/floe/Downloads/no-camera.png"
   inkscape:export-xdpi="96"
   inkscape:export-ydpi="96"
   xmlns:inkscape="http://www.inkscape.org/namespaces/inkscape"
   xmlns:sodipodi="http://sodipodi.sourceforge.net/DTD/sodipodi-0.dtd"
   xmlns:xlink="http://www.w3.org/1999/xlink"
   xmlns="http://www.w3.org/2000/svg"
   xmlns:svg="http://www.w3.org/2000/svg"
   xmlns:rdf="http://www.w3.org/1999/02/22-rdf-syntax-ns#"
   xmlns:cc="http://creativecommons.org/ns#"
   xmlns:dc="http://purl.org/dc/elements/1.1/"><metadata
     id="metadata8"><rdf:RDF><cc:Work
         rdf:about=""><dc:format>image/svg+xml</dc:format><dc:type
           rdf:resource="http://purl.org/dc/dcmitype/StillImage" /></cc:Work></rdf:RDF></metadata><defs
     id="defs6"><pattern
       inkscape:collect="always"
       xlink:href="#Checkerboard"
       id="pattern4089"
       patternTransform="matrix(10,0,0,9.9999999,370.74325,-265.73026)" /><pattern
       inkscape:collect="always"
       patternUnits="userSpaceOnUse"
       width="2"
       height="2"
       patternTransform="translate(0,0) scale(10,10)"
       id="Checkerboard"
       inkscape:stockid="Checkerboard"><rect
         style="fill:black;stroke:none"
         x="0"
         y="0"
         width="1"
         height="1"
         id="rect3181" /><rect
         style="fill:black;stroke:none"
         x="1"
         y="1"
         width="1"
         height="1"
         id="rect3183" /></pattern></defs><sodipodi:namedview
     pagecolor="#ffffff"
     bordercolor="#666666"
     borderopacity="1"
     objecttolerance="10"
     gridtolerance="10"
     guidetolerance="10"
     inkscape:pageopacity="1"
     inkscape:pageshadow="2"
     inkscape:window-width="1920"
     inkscape:window-height="1166"
     id="namedview4"
     showgrid="false"
     inkscape:zoom="1.0224769"
     inkscape:cx="331.05882"
     inkscape:cy="432.2836"
     inkscape:window-x="299"
     inkscape:window-y="1437"
     inkscape:window-maximized="1"
     inkscape:current-layer="g10"
     inkscape:pagecheckerboard="false" /><g
     id="g10"
     inkscape:groupmode="layer"
     inkscape:label="ink_ext_XXXXXX"
     transform="matrix(1.25,0,0,-1.25,0,160)"><rect
       style="fill:url(#pattern4089);fill-opacity:1;stroke:none;stroke-width:0.108089;stroke-linecap:round;stroke-linejoin:round;stroke-miterlimit:4;stroke-dasharray:none;stroke-opacity:1;opacity:0.49962233"
       id="rect2028"
       width="1024"
       height="576"
       x="0"
       y="-128"
       transform="scale(1,-1)"
       rx="0.75674194"
       ry="0.093910113" /><g
       id="g3916"
       transform="matrix(0.49743166,0,0,0.49743166,363.14358,-308.95591)"><circle
         style="fill:#fffffd;fill-opacity:1;stroke:none;stroke-width:3.408;stroke-linecap:round;stroke-linejoin:round;stroke-miterlimit:4;stroke-dasharray:none;stroke-opacity:1"
         id="path902"
         cx="299.01712"
         cy="-297.23315"
         r="232.81938"
         transform="scale(1,-1)" /><path
         id="path28"
         d="m 370.46875,230.75 c -25.42532,0 -48.59369,9.59353 -66.125,25.34375 l 57.96875,57.96875 c 3.96533,-0.60105 8.02296,-0.9375 12.15625,-0.9375 44.43125,0 80.4375,36.00625 80.4375,80.4375 0,4.1334 -0.33645,8.19036 -0.9375,12.15625 L 554.5,506.25 c 14.98807,-4.91141 25.8125,-18.99541 25.8125,-35.625 v -162.5 c 0,-20.71 -16.79,-37.5 -37.5,-37.5 h -20.875 v -7.1875 c 0,-8.9975 -7.31375,-16.28125 -16.3125,-16.28125 -8.99625,0 -16.28125,7.28375 -16.28125,16.28125 v 7.1875 h -39.4375 C 431.86011,246.414 402.99373,230.75 370.46875,230.75 Z m -13.59375,13 h 27.5 c 8.63,0 15.625,6.99625 15.625,15.625 0,4.41759 -1.83365,8.40792 -4.78125,11.25 h -49.1875 c -2.94775,-2.84208 -4.78125,-6.83241 -4.78125,-11.25 0,-8.62875 6.99625,-15.625 15.625,-15.625 z"
         style="fill:#ffffff;fill-opacity:1;fill-rule:nonzero;stroke:#000000;stroke-width:4.26;stroke-miterlimit:4;stroke-dasharray:none;stroke-opacity:1"
         inkscape:connector-curvature="0"
         transform="matrix(0.8,0,0,-0.8,0,599)" /><path
         id="path3901"
         d="m 164.25,382.5 c -16.569,0 -30,-13.432 -30,-30 v -130 c 0,-16.568 13.431,-30 30,-30 h 203.075 l -35.8,35.775 c -9.41466,-5.39918 -20.31889,-8.5 -31.95,-8.5 -35.543,0 -64.35,28.831 -64.35,64.375 0,11.62338 3.11098,22.51462 8.5,31.925 L 177.3,382.5 Z"
         style="fill:#ffffff;fill-opacity:1;fill-rule:nonzero;stroke:#000000;stroke-width:3.408;stroke-miterlimit:4;stroke-dasharray:none;stroke-opacity:1"
         inkscape:connector-curvature="0" /><path
         id="path36"
         transform="matrix(0.8,0,0,-0.8,0,599)"
         d="m 374.0625,54.96875 c -176.1485,0 -319.5,143.28875 -319.5,319.4375 0,176.15678 143.35153,319.5 319.5,319.5 176.15077,0 319.5,-143.34335 319.5,-319.5 0,-176.14864 -143.3492,-319.4375 -319.5,-319.4375 z m 0,50 c 149.1292,0 269.5,120.31114 269.5,269.4375 0,64.41395 -22.47282,123.45239 -60,169.75 L 204.34375,164.9375 c 46.29727,-37.51599 105.31199,-59.96875 169.71875,-59.96875 z m -209.5,99.71875 379.21875,379.21875 c -46.2979,37.52569 -105.30826,60 -169.71875,60 -149.12653,0 -269.5,-120.36428 -269.5,-269.5 0,-64.4098 22.47246,-123.42872 60,-169.71875 z"
         style="fill:#ffffff;fill-opacity:1;fill-rule:nonzero;stroke:#000000;stroke-width:4.26;stroke-miterlimit:4;stroke-dasharray:none;stroke-opacity:1"
         inkscape:connector-curvature="0" /><rect
         style="fill:#fffffd;fill-opacity:1;stroke:none;stroke-width:0.555156;stroke-linecap:round;stroke-linejoin:round;stroke-miterlimit:4;stroke-dasharray:none;stroke-opacity:1"
         id="rect1420"
         width="91.304291"
         height="22.651522"
         x="-50.190346"
         y="-409.22836"
         transform="matrix(0.70955491,-0.70465015,-0.52403646,-0.85169583,0,0)"
         rx="4.1538033"
         ry="1.0598882" /><rect
         style="fill:#fffffd;fill-opacity:1;stroke:none;stroke-width:0.297007;stroke-linecap:round;stroke-linejoin:round;stroke-miterlimit:4;stroke-dasharray:none;stroke-opacity:1"
         id="rect1587"
         width="45.291859"
         height="4.0073323"
         x="115.89597"
         y="-399.23386"
         transform="matrix(0.71162986,-0.70255459,-0.62898054,-0.77742105,0,0)"
         rx="1.440953"
         ry="0.37244824" /><rect
         style="fill:#fffffd;fill-opacity:1;stroke:none;stroke-width:0.408482;stroke-linecap:round;stroke-linejoin:round;stroke-miterlimit:4;stroke-dasharray:none;stroke-opacity:1"
         id="rect1587-6"
         width="62.241047"
         height="5.5158272"
         x="-53.616802"
         y="-456.50897"
         transform="matrix(0.70650402,-0.70770903,-0.62344638,-0.78186611,0,0)"
         rx="1.9801887"
         ry="0.51265031" /><rect
         style="fill:#fffffd;fill-opacity:1;stroke:none;stroke-width:0.734163;stroke-linecap:round;stroke-linejoin:round;stroke-miterlimit:4;stroke-dasharray:none;stroke-opacity:1"
         id="rect1587-6-7"
         width="111.8945"
         height="9.9109859"
         x="113.54588"
         y="-460.9888"
         transform="matrix(0.70816541,-0.70604656,-0.62523719,-0.78043479,0,0)"
         rx="3.5599053"
         ry="0.92114389" /></g></g></svg>
